name Walk7.mot
datacolumns 19
datarows 27
range 2.60500000 2.73500000
endheader

                time	   L_ground_force_vx	   L_ground_force_vy	   L_ground_force_vz	   L_ground_force_px	   L_ground_force_py	   L_ground_force_pz	   R_ground_force_vx	   R_ground_force_vy	   R_ground_force_vz	   R_ground_force_px	   R_ground_force_py	   R_ground_force_pz	   L_ground_torque_x	   L_ground_torque_y	   L_ground_torque_z	   R_ground_torque_x	   R_ground_torque_y	   R_ground_torque_z	
          2.60500000	         56.19362143	        935.15291102	         62.83549300	         -0.37757241	          0.00000000	         -0.07455448	          0.00449029	         -0.04185589	         -0.00273610	         -0.00000792	          0.00000000	         -0.00000440	          0.00000000	         -1.67052243	          0.00000000	          0.00000000	         -0.00052348	          0.00000000	
          2.61000000	         59.03994334	        938.09698405	         63.04574882	         -0.37610642	          0.00000000	         -0.07500706	          0.00399769	         -0.04059008	         -0.00242355	         -0.00000535	          0.00000000	         -0.00000272	          0.00000000	         -1.57727028	          0.00000000	          0.00000000	         -0.00045252	          0.00000000	
          2.61500000	         61.84955435	        940.85999525	         63.37031472	         -0.37456591	          0.00000000	         -0.07548435	          0.00273650	         -0.03361030	         -0.00163727	         -0.00000069	          0.00000000	          0.00000023	          0.00000000	         -1.47983953	          0.00000000	          0.00000000	         -0.00028605	          0.00000000	
          2.62000000	         64.59188921	        943.42821089	         63.81057560	         -0.37293821	          0.00000000	         -0.07598641	          0.00043234	         -0.01858109	         -0.00020925	          0.00000667	          0.00000000	          0.00000481	          0.00000000	         -1.37543139	          0.00000000	          0.00000000	          0.00000881	          0.00000000	
          2.62500000	         67.24365334	        945.80946646	         64.36074977	         -0.37121260	          0.00000000	         -0.07651291	         -0.00321404	          0.00714673	          0.00204339	          0.00001731	          0.00000000	          0.00001135	          0.00000000	         -1.26111395	          0.00000000	          0.00000000	          0.00046752	          0.00000000	
          2.63000000	         69.78725450	        948.02600937	         65.00894203	         -0.36938003	          0.00000000	         -0.07706332	         -0.00850374	          0.04638478	          0.00530411	          0.00003178	          0.00000000	          0.00002015	          0.00000000	         -1.13422060	          0.00000000	          0.00000000	          0.00112516	          0.00000000	
          2.63500000	         72.20908183	        950.10767009	         65.73924926	         -0.36743323	          0.00000000	         -0.07763761	         -0.01570365	          0.10185126	          0.00973465	          0.00005042	          0.00000000	          0.00003139	          0.00000000	         -0.99309678	          0.00000000	          0.00000000	          0.00201192	          0.00000000	
          2.64000000	         74.49842521	        952.08678374	         66.53443816	         -0.36536596	          0.00000000	         -0.07823718	         -0.02499434	          0.17578343	          0.01544299	          0.00007328	          0.00000000	          0.00004504	          0.00000000	         -0.83705487	          0.00000000	          0.00000000	          0.00314658	          0.00000000	
          2.64500000	         76.64501931	        953.99293290	         67.37710809	         -0.36317217	          0.00000000	         -0.07886440	         -0.03639955	          0.26939273	          0.02243991	          0.00009987	          0.00000000	          0.00006078	          0.00000000	         -0.66586465	          0.00000000	          0.00000000	          0.00452789	          0.00000000	
          2.65000000	         78.63710495	        955.84856866	         68.25014801	         -0.36084516	          0.00000000	         -0.07952098	         -0.04969551	          0.38214148	          0.03058330	          0.00012903	          0.00000000	          0.00007782	          0.00000000	         -0.47999299	          0.00000000	          0.00000000	          0.00612346	          0.00000000	
          2.65500000	         80.46008171	        957.66885093	         69.13819880	         -0.35837616	          0.00000000	         -0.08020731	         -0.06430012	          0.51083083	          0.03951015	          0.00015859	          0.00000000	          0.00009480	          0.00000000	         -0.28044675	          0.00000000	          0.00000000	          0.00785636	          0.00000000	
          2.66000000	         82.09429957	        959.45849733	         70.02803008	         -0.35575368	          0.00000000	         -0.08092190	         -0.07914424	          0.64850659	          0.04855778	          0.00018512	          0.00000000	          0.00010959	          0.00000000	         -0.06869318	          0.00000000	          0.00000000	          0.00958971	          0.00000000	
          2.66500000	         83.51366717	        961.20989915	         70.90700840	         -0.35296414	          0.00000000	         -0.08166156	         -0.09253115	          0.78321631	          0.05667794	          0.00020366	          0.00000000	          0.00011913	          0.00000000	          0.15336127	          0.00000000	          0.00000000	          0.01110997	          0.00000000	
          2.67000000	         84.68653301	        962.90923095	         71.76116511	         -0.34999422	          0.00000000	         -0.08242351	         -0.10199473	          0.89668735	          0.06235038	          0.00020746	          0.00000000	          0.00011932	          0.00000000	          0.38337119	          0.00000000	          0.00000000	          0.01211046	          0.00000000	
          2.67500000	         85.58131816	        964.54562064	         72.57312080	         -0.34683425	          0.00000000	         -0.08320480	         -0.10417324	          0.96304506	          0.06350631	          0.00018779	          0.00000000	          0.00010490	          0.00000000	          0.61822728	          0.00000000	          0.00000000	          0.01217704	          0.00000000	
          2.68000000	         86.17600205	        966.11865112	         73.32139239	         -0.34348038	          0.00000000	         -0.08400059	         -0.09472288	          0.94775143	          0.05747672	          0.00013397	          0.00000000	          0.00006947	          0.00000000	          0.85423557	          0.00000000	          0.00000000	          0.01077910	          0.00000000	
          2.68500000	         86.46584075	        967.64390896	         73.98146743	         -0.33993637	          0.00000000	         -0.08480390	         -0.06830418	          0.80701849	          0.04098582	          0.00003351	          0.00000000	          0.00000565	          0.00000000	          1.08693729	          0.00000000	          0.00000000	          0.00726982	          0.00000000	
          2.69000000	         86.46617940	        969.15659297	         74.52685040	         -0.33621435	          0.00000000	         -0.08560590	         -0.01868358	          0.48803435	          0.01021554	         -0.00012727	          0.00000000	         -0.00009456	          0.00000000	          1.31122681	          0.00000000	          0.00000000	          0.00090094	          0.00000000	
          2.69500000	         86.21139882	        970.71639417	         74.93064088	         -0.33233508	          0.00000000	         -0.08639605	          0.06099799	         -0.06957138	         -0.03902687	         -0.00036230	          0.00000000	         -0.00023916	          0.00000000	          1.52175692	          0.00000000	          0.00000000	         -0.00914167	          0.00000000	
          2.70000000	         85.75325287	        972.40311643	         75.16894113	         -0.32832765	          0.00000000	         -0.08716255	          0.17772905	         -0.93051034	         -0.11100138	         -0.00068412	          0.00000000	         -0.00043515	          0.00000000	          1.71322582	          0.00000000	          0.00000000	         -0.02367449	          0.00000000	
          2.70500000	         85.15923793	        974.30940185	         75.22598107	         -0.32422789	          0.00000000	         -0.08789376	          0.33783811	         -2.15828303	         -0.20954739	         -0.00110158	          0.00000000	         -0.00068711	          0.00000000	          1.88150493	          0.00000000	          0.00000000	         -0.04341695	          0.00000000	
          2.71000000	         84.50921002	        976.53539220	         75.09824361	         -0.32007699	          0.00000000	         -0.08858035	          0.54584400	         -3.80666995	         -0.33737495	         -0.00161671	          0.00000000	         -0.00099528	          0.00000000	          2.02407566	          0.00000000	          0.00000000	         -0.06884840	          0.00000000	
          2.71500000	         83.89165673	        979.18239845	         74.79668496	         -0.31592061	          0.00000000	         -0.08921553	          0.80288629	         -5.90766177	         -0.49509886	         -0.00222060	          0.00000000	         -0.00135308	          0.00000000	          2.13993974	          0.00000000	          0.00000000	         -0.10001476	          0.00000000	
          2.72000000	         83.40051802	        982.34596888	         74.34712034	         -0.31180695	          0.00000000	         -0.08979508	          1.10469438	         -8.45532520	         -0.67999072	         -0.00288844	          0.00000000	         -0.00174415	          0.00000000	          2.22995236	          0.00000000	          0.00000000	         -0.13628031	          0.00000000	
          2.72500000	         83.13269414	        986.11059619	         73.78770553	         -0.30778544	          0.00000000	         -0.09031705	          1.43908797	        -11.38532084	         -0.88444539	         -0.00357362	          0.00000000	         -0.00213888	          0.00000000	          2.29619363	          0.00000000	          0.00000000	         -0.17602489	          0.00000000	
          2.73000000	         83.18605282	        990.54643048	         73.16414199	         -0.30390546	          0.00000000	         -0.09077955	          1.78305458	        -14.55016683	         -1.09419091	         -0.00420135	          0.00000000	         -0.00249062	          0.00000000	          2.34115382	          0.00000000	          0.00000000	         -0.21629296	          0.00000000	
          2.73500000	         83.65653035	        995.70064842	         72.52373769	         -0.30021456	          0.00000000	         -0.09118011	          2.09952844	        -17.69091930	         -1.28631935	         -0.00466208	          0.00000000	         -0.00273197	          0.00000000	          2.36695783	          0.00000000	          0.00000000	         -0.25241119	          0.00000000	
